<svg xmlns="http://www.w3.org/2000/svg" xmlns:xlink="http://www.w3.org/1999/xlink" width="375" height="200" viewBox="0 0 375 200"><defs><style>.a{fill:url(#a);}.b{clip-path:url(#c);}.c{fill:none;stroke:#fff;stroke-width:50px;opacity:0.06;}</style><linearGradient id="a" x2="1" y2="1" gradientUnits="objectBoundingBox"><stop offset="0" stop-color="#8f67e8"/><stop offset="1" stop-color="#6357cc"/></linearGradient><clipPath id="c"><path class="a" d="M0,0H375a0,0,0,0,1,0,0V200a0,0,0,0,1,0,0H35A35,35,0,0,1,0,165V0A0,0,0,0,1,0,0Z"/></clipPath></defs><path class="a" d="M0,0H375a0,0,0,0,1,0,0V166a34,34,0,0,1-34,34H34A34,34,0,0,1,0,166V0A0,0,0,0,1,0,0Z"/><g class="b"><path class="c" d="M125,0A125,125,0,1,1,0,125,125,125,0,0,1,125,0Z" transform="translate(-102 -141)"/><path class="c" d="M125,0A125,125,0,1,1,0,125,125,125,0,0,1,125,0Z" transform="translate(243 100)"/></g></svg>